<svg width="300" height="300" viewBox="0 0 300 300" fill="none" xmlns="http://www.w3.org/2000/svg">
<circle cx="150" cy="150" r="146" stroke="black" stroke-width="8"/>
<mask id="path-2-inside-1_802_7" fill="white">
<path d="M150 0C110.218 0 72.0644 15.8035 43.934 43.934C15.8035 72.0644 3.00349e-06 110.218 0 150C-3.00349e-06 189.782 15.8035 227.936 43.934 256.066C72.0644 284.196 110.218 300 150 300L150 150L150 0Z"/>
</mask>
<path d="M150 0C110.218 0 72.0644 15.8035 43.934 43.934C15.8035 72.0644 3.00349e-06 110.218 0 150C-3.00349e-06 189.782 15.8035 227.936 43.934 256.066C72.0644 284.196 110.218 300 150 300L150 150L150 0Z" fill="black" stroke="black" stroke-width="16" mask="url(#path-2-inside-1_802_7)"/>
<path d="M244.487 210.781C231.433 231.35 212.055 247.126 189.266 255.737C166.477 264.349 141.508 265.33 118.113 258.533C94.7189 251.736 74.1628 237.529 59.5355 218.047C44.9081 198.565 37 174.862 37 150.5C37 126.138 44.9081 102.435 59.5355 82.9527C74.1629 63.4709 94.719 49.2637 118.114 42.467C141.508 35.6702 166.477 36.6512 189.266 45.2626C212.055 53.8739 231.433 69.6501 244.487 90.2195L225.49 102.276C215.047 85.8201 199.544 73.1991 181.313 66.31C163.081 59.421 143.106 58.6362 124.391 64.0736C105.675 69.511 89.2303 80.8767 77.5284 96.4622C65.8265 112.048 59.5 131.01 59.5 150.5C59.5 169.989 65.8265 188.952 77.5284 204.538C89.2303 220.123 105.675 231.489 124.391 236.926C143.106 242.364 163.081 241.579 181.313 234.69C199.544 227.801 215.047 215.18 225.49 198.724L244.487 210.781Z" fill="url(#paint0_linear_802_7)"/>
<defs>
<linearGradient id="paint0_linear_802_7" x1="37" y1="150.5" x2="262" y2="150.5" gradientUnits="userSpaceOnUse">
<stop stop-color="white"/>
<stop offset="0.5" stop-color="white"/>
<stop offset="0.5"/>
</linearGradient>
</defs>
</svg>
